HIERARCHY
ROOT Hips
{
	OFFSET 0.000000 83.214638 0.000000
	CHANNELS 6 Xposition Yposition Zposition Xrotation Yrotation Zrotation
	JOINT Pelvis
	{
		OFFSET 0.000000 0.000000 0.000000
		CHANNELS 3 Xrotation Yrotation Zrotation
		JOINT LeftUpLeg
		{
			OFFSET 8.479700 -4.795502 -0.379100
			CHANNELS 3 Xrotation Yrotation Zrotation
			JOINT LeftLeg
			{
				OFFSET 0.024144 -32.555107 0.112900
				CHANNELS 3 Xrotation Yrotation Zrotation
				JOINT LeftFoot
				{
					OFFSET -0.024144 -32.638630 -3.012600
					CHANNELS 3 Xrotation Yrotation Zrotation
					JOINT LeftToeBase
					{
						OFFSET 0.970200 -13.225400 11.864200
						CHANNELS 3 Xrotation Yrotation Zrotation
						End Site
						{
							OFFSET 0.000000 12.319262 0.000000
						}
					}
					JOINT LFootTongue
					{
						OFFSET 1.142400 -1.059800 6.665200
						CHANNELS 3 Xrotation Yrotation Zrotation
						End Site
						{
							OFFSET 0.000000 12.319262 0.000000
						}
					}
				}
				JOINT LeftPantLeg
				{
					OFFSET 0.918482 -16.533964 -2.284700
					CHANNELS 3 Xrotation Yrotation Zrotation
					End Site
					{
						OFFSET 0.350399 24.744368 0.000000
					}
				}
			}
		}
		JOINT RightUpLeg
		{
			OFFSET -8.479700 -4.795502 -0.379100
			CHANNELS 3 Xrotation Yrotation Zrotation
			JOINT RightLeg
			{
				OFFSET -0.023144 -32.555092 0.112900
				CHANNELS 3 Xrotation Yrotation Zrotation
				JOINT RightFoot
				{
					OFFSET 0.023144 -32.638641 -3.012700
					CHANNELS 3 Xrotation Yrotation Zrotation
					JOINT RightToeBase
					{
						OFFSET -0.970200 -13.225400 11.864200
						CHANNELS 3 Xrotation Yrotation Zrotation
						End Site
						{
							OFFSET 0.000000 12.319244 0.000000
						}
					}
					JOINT RFootTongue
					{
						OFFSET -1.142200 -1.059800 6.665200
						CHANNELS 3 Xrotation Yrotation Zrotation
						End Site
						{
							OFFSET 0.000000 12.319243 0.000000
						}
					}
				}
				JOINT RightPantLeg
				{
					OFFSET -0.919482 -16.533978 -2.284800
					CHANNELS 3 Xrotation Yrotation Zrotation
					End Site
					{
						OFFSET -0.350400 24.744419 0.000000
					}
				}
			}
		}
	}
	JOINT Spine
	{
		OFFSET 0.000000 7.722000 1.166200
		CHANNELS 3 Xrotation Yrotation Zrotation
		JOINT Spine1
		{
			OFFSET 0.000000 12.024101 0.248800
			CHANNELS 3 Xrotation Yrotation Zrotation
			JOINT Spine2
			{
				OFFSET 0.000000 11.502998 -0.491200
				CHANNELS 3 Xrotation Yrotation Zrotation
				JOINT Neck
				{
					OFFSET 0.000000 18.430702 -3.123100
					CHANNELS 3 Xrotation Yrotation Zrotation
					JOINT Head
					{
						OFFSET 0.000000 9.051102 1.034000
						CHANNELS 3 Xrotation Yrotation Zrotation
						JOINT HairB
						{
							OFFSET 0.208400 24.786102 24.822300
							CHANNELS 3 Xrotation Yrotation Zrotation
							End Site
							{
								OFFSET 0.000000 32.263779 0.000000
							}
						}
						JOINT HairA
						{
							OFFSET -7.081100 24.428299 23.196600
							CHANNELS 3 Xrotation Yrotation Zrotation
							End Site
							{
								OFFSET 0.000000 32.263779 0.000000
							}
						}
						JOINT Hat
						{
							OFFSET 16.728800 15.048294 -15.439601
							CHANNELS 3 Xrotation Yrotation Zrotation
							End Site
							{
								OFFSET 0.000000 32.263779 0.000000
							}
						}
					}
				}
				JOINT LeftShoulder
				{
					OFFSET 6.197800 13.665199 -4.064700
					CHANNELS 3 Xrotation Yrotation Zrotation
					JOINT LeftArm
					{
						OFFSET 7.778100 -0.187103 -1.709300
						CHANNELS 3 Xrotation Yrotation Zrotation
						JOINT LeftForeArm
						{
							OFFSET 22.049376 0.000000 0.000000
							CHANNELS 3 Xrotation Yrotation Zrotation
							JOINT LeftHand
							{
								OFFSET 23.009392 0.000000 0.000000
								CHANNELS 3 Xrotation Yrotation Zrotation
								JOINT LeftHandThumb1
								{
									OFFSET 3.507191 -2.063065 3.133727
									CHANNELS 3 Xrotation Yrotation Zrotation
									JOINT LeftHandThumb2
									{
										OFFSET 3.101337 -1.790558 1.790558
										CHANNELS 3 Xrotation Yrotation Zrotation
										JOINT LeftHandThumb3
										{
											OFFSET 3.058640 -1.765907 1.765906
											CHANNELS 3 Xrotation Yrotation Zrotation
											End Site
											{
												OFFSET -0.415260 3.926476 -0.049563
											}
										}
									}
								}
								JOINT LeftHandIndex1
								{
									OFFSET 11.334419 -0.901459 3.706815
									CHANNELS 3 Xrotation Yrotation Zrotation
									JOINT LeftHandIndex2
									{
										OFFSET 3.283112 0.000000 0.000000
										CHANNELS 3 Xrotation Yrotation Zrotation
										JOINT LeftHandIndex3
										{
											OFFSET 3.323853 0.000000 0.000000
											CHANNELS 3 Xrotation Yrotation Zrotation
											End Site
											{
												OFFSET -1.135597 3.097809 0.402452
											}
										}
									}
								}
								JOINT LeftHandMiddle1
								{
									OFFSET 11.335861 0.000000 0.000000
									CHANNELS 3 Xrotation Yrotation Zrotation
									JOINT LeftHandMiddle2
									{
										OFFSET 3.410492 0.000000 0.000000
										CHANNELS 3 Xrotation Yrotation Zrotation
										JOINT LeftHandMiddle3
										{
											OFFSET 3.312172 0.000000 0.000000
											CHANNELS 3 Xrotation Yrotation Zrotation
											End Site
											{
												OFFSET -1.150200 3.080154 0.400270
											}
										}
									}
								}
								JOINT LeftHandRing1
								{
									OFFSET 11.514786 -0.013176 -3.003090
									CHANNELS 3 Xrotation Yrotation Zrotation
									JOINT LeftHandRing2
									{
										OFFSET 3.053307 0.000000 0.000000
										CHANNELS 3 Xrotation Yrotation Zrotation
										JOINT LeftHandRing3
										{
											OFFSET 3.295807 0.000000 0.000000
											CHANNELS 3 Xrotation Yrotation Zrotation
											End Site
											{
												OFFSET -1.281006 3.013344 0.375733
											}
										}
									}
								}
								JOINT LeftHandPinky1
								{
									OFFSET 10.518692 -0.960396 -5.730441
									CHANNELS 3 Xrotation Yrotation Zrotation
									JOINT LeftHandPinky2
									{
										OFFSET 2.861649 0.000000 0.000000
										CHANNELS 3 Xrotation Yrotation Zrotation
										JOINT LeftHandPinky3
										{
											OFFSET 2.863380 0.000000 0.000000
											CHANNELS 3 Xrotation Yrotation Zrotation
											End Site
											{
												OFFSET -0.843597 2.711159 0.369971
											}
										}
									}
								}
							}
							JOINT LSleeve
							{
								OFFSET 6.676277 -0.344902 -1.011730
								CHANNELS 3 Xrotation Yrotation Zrotation
								End Site
								{
									OFFSET 0.000000 14.885353 0.000000
								}
							}
						}
					}
				}
				JOINT RightShoulder
				{
					OFFSET -6.197800 13.665199 -4.064700
					CHANNELS 3 Xrotation Yrotation Zrotation
					JOINT RightArm
					{
						OFFSET -7.778100 -0.187103 -1.709300
						CHANNELS 3 Xrotation Yrotation Zrotation
						JOINT RightForeArm
						{
							OFFSET -22.049376 0.000000 0.000000
							CHANNELS 3 Xrotation Yrotation Zrotation
							JOINT RightHand
							{
								OFFSET -23.009392 0.000000 0.000000
								CHANNELS 3 Xrotation Yrotation Zrotation
								JOINT RightHandThumb1
								{
									OFFSET -3.507191 -2.063065 3.133727
									CHANNELS 3 Xrotation Yrotation Zrotation
									JOINT RightHandThumb2
									{
										OFFSET -3.101337 -1.790558 1.790558
										CHANNELS 3 Xrotation Yrotation Zrotation
										JOINT RightHandThumb3
										{
											OFFSET -3.058640 -1.765907 1.765906
											CHANNELS 3 Xrotation Yrotation Zrotation
											End Site
											{
												OFFSET 0.415260 3.926476 -0.049563
											}
										}
									}
								}
								JOINT RightHandIndex1
								{
									OFFSET -11.334419 -0.901459 3.706815
									CHANNELS 3 Xrotation Yrotation Zrotation
									JOINT RightHandIndex2
									{
										OFFSET -3.283112 0.000000 0.000000
										CHANNELS 3 Xrotation Yrotation Zrotation
										JOINT RightHandIndex3
										{
											OFFSET -3.323853 0.000000 0.000000
											CHANNELS 3 Xrotation Yrotation Zrotation
											End Site
											{
												OFFSET 1.135597 3.097809 0.402452
											}
										}
									}
								}
								JOINT RightHandMiddle1
								{
									OFFSET -11.335861 0.000000 0.000000
									CHANNELS 3 Xrotation Yrotation Zrotation
									JOINT RightHandMiddle2
									{
										OFFSET -3.410492 0.000000 0.000000
										CHANNELS 3 Xrotation Yrotation Zrotation
										JOINT RightHandMiddle3
										{
											OFFSET -3.312172 0.000000 0.000000
											CHANNELS 3 Xrotation Yrotation Zrotation
											End Site
											{
												OFFSET 1.150200 3.080154 0.400270
											}
										}
									}
								}
								JOINT RightHandRing1
								{
									OFFSET -11.514786 -0.013176 -3.003090
									CHANNELS 3 Xrotation Yrotation Zrotation
									JOINT RightHandRing2
									{
										OFFSET -3.053307 0.000000 0.000000
										CHANNELS 3 Xrotation Yrotation Zrotation
										JOINT RightHandRing3
										{
											OFFSET -3.295807 0.000000 0.000000
											CHANNELS 3 Xrotation Yrotation Zrotation
											End Site
											{
												OFFSET 1.281006 3.013344 0.375733
											}
										}
									}
								}
								JOINT RightHandPinky1
								{
									OFFSET -10.518692 -0.960396 -5.730441
									CHANNELS 3 Xrotation Yrotation Zrotation
									JOINT RightHandPinky2
									{
										OFFSET -2.861649 0.000000 0.000000
										CHANNELS 3 Xrotation Yrotation Zrotation
										JOINT RightHandPinky3
										{
											OFFSET -2.863380 0.000000 0.000000
											CHANNELS 3 Xrotation Yrotation Zrotation
											End Site
											{
												OFFSET 0.843597 2.711159 0.369971
											}
										}
									}
								}
							}
							JOINT RSleeve
							{
								OFFSET -6.676277 -0.344902 -1.011730
								CHANNELS 3 Xrotation Yrotation Zrotation
								End Site
								{
									OFFSET 0.000000 14.885353 0.000000
								}
							}
						}
					}
				}
				JOINT Backpack
				{
					OFFSET 0.000000 -2.471497 36.677502
					CHANNELS 3 Xrotation Yrotation Zrotation
					End Site
					{
						OFFSET 0.000000 20.427315 0.000000
					}
				}
				JOINT Hood
				{
					OFFSET 0.000000 18.754097 -10.431000
					CHANNELS 3 Xrotation Yrotation Zrotation
					JOINT Hood1
					{
						OFFSET 0.000000 -5.011002 -7.685901
						CHANNELS 3 Xrotation Yrotation Zrotation
						End Site
						{
							OFFSET 0.000000 9.175140 0.000000
						}
					}
				}
				JOINT LHoodieString
				{
					OFFSET 5.250500 16.397697 3.089900
					CHANNELS 3 Xrotation Yrotation Zrotation
					JOINT LHoodieString1
					{
						OFFSET 0.257700 -6.364304 3.694600
						CHANNELS 3 Xrotation Yrotation Zrotation
						JOINT LHoodieString2
						{
							OFFSET 0.000000 -9.643799 2.679100
							CHANNELS 3 Xrotation Yrotation Zrotation
							End Site
							{
								OFFSET 0.000000 10.009018 0.000000
							}
						}
					}
				}
				JOINT RHoodieString
				{
					OFFSET -5.250500 16.397697 3.089900
					CHANNELS 3 Xrotation Yrotation Zrotation
					JOINT RHoodieString1
					{
						OFFSET -0.257700 -6.364304 3.694600
						CHANNELS 3 Xrotation Yrotation Zrotation
						JOINT RHoodieString2
						{
							OFFSET 0.000000 -9.643799 2.679100
							CHANNELS 3 Xrotation Yrotation Zrotation
							End Site
							{
								OFFSET 0.000000 10.009018 0.000000
							}
						}
					}
				}
			}
			JOINT LBackpack_Strap
			{
				OFFSET 15.223200 -7.719803 -6.610900
				CHANNELS 3 Xrotation Yrotation Zrotation
				End Site
				{
					OFFSET 0.000000 16.040596 0.000000
				}
			}
			JOINT RBackpack_Strap
			{
				OFFSET -15.223000 -7.719803 -6.610900
				CHANNELS 3 Xrotation Yrotation Zrotation
				End Site
				{
					OFFSET 0.000000 16.040596 0.000000
				}
			}
		}
	}
	JOINT BoyFacialAnim_Joint
	{
		OFFSET 1.000000 -82.208099 -1.550900
		CHANNELS 3 Xrotation Yrotation Zrotation
		End Site
		{
			OFFSET 0.000000 30.012791 0.000000
		}
	}
}
MOTION
Frames: 5
Frame Time: 0.033333
-0.654560 70.803452 -2.159029 -14.337443 4.880453 0.200899 -0.000000 0.000000 -0.000000 -23.187054 -2.884591 14.356547 62.730513 -0.399533 0.409270 -24.898461 -2.438374 -12.301966 -0.000000 0.000001 0.000000 -0.000000 0.000001 -0.000000 -0.000001 -0.000001 -0.000000 -20.069591 -9.540132 -16.896770 63.692791 0.007409 -0.463585 -28.622610 -3.079714 10.035118 -0.000000 -0.000002 0.000000 -0.000000 -0.000002 0.000000 -0.000002 -0.000001 -0.000000 21.787897 -0.036677 0.787463 10.241255 -0.342628 0.678627 10.241408 -0.349742 0.674973 1.154983 -1.411650 -1.956710 -14.397585 -3.126647 0.749445 0.000001 0.000000 0.000000 0.000001 0.000000 0.000000 0.000001 0.000000 0.000000 1.033392 -17.638306 -11.812901 -13.851823 -7.138782 -57.916084 -124.306192 -95.768090 -115.096187 -12.265585 -20.374495 10.202109 20.304698 9.934889 -19.712256 3.939344 33.660166 6.069554 -0.000002 0.000001 -0.000001 11.349658 7.907531 -58.206223 11.227766 12.104097 -91.049932 -0.000003 -0.000004 -0.000004 -3.305582 14.721214 -56.172398 18.751810 6.506575 -95.559374 0.000003 0.000000 0.000000 -8.496467 16.099507 -73.494564 10.310335 4.269030 -84.431937 0.000001 -0.000001 0.000001 -15.187896 25.469798 -80.136581 11.543710 -3.632272 -77.866247 -0.000001 0.000002 0.000000 0.000000 -0.000001 0.000000 4.997328 3.948435 27.382440 -7.022830 25.805799 40.970432 -104.348720 83.616713 92.963321 -11.213510 20.213955 -16.700308 9.328426 -7.955811 2.134281 9.469620 -37.574216 5.298906 -0.000001 -0.000005 -0.000000 9.335455 -23.787280 56.917718 11.331919 -12.103954 91.629228 0.000001 -0.000000 0.000003 -6.277563 -19.692803 58.343073 17.338761 -6.627495 88.786531 0.000001 0.000001 -0.000004 -12.784731 -20.139590 66.663097 10.292784 -4.268201 84.325085 -0.000001 -0.000001 0.000002 -20.819103 -25.725446 77.767987 11.570574 3.626104 77.960496 -0.000001 -0.000003 0.000001 0.000001 0.000001 -0.000002 -0.000001 0.000000 -0.000000 -0.000001 0.000000 -0.000000 -0.000001 0.000000 -0.000000 -0.000001 0.000000 -0.000000 -0.000001 0.000000 0.000000 0.000001 0.000000 -0.000000 -0.000001 0.000000 -0.000000 -0.000001 0.000000 0.000000 0.000001 0.000000 -0.000000 0.000000 0.000000 -0.000000 0.000000 0.000000 -0.000000 -0.000000 0.000000 -0.000000 
-0.733175 71.070595 -1.927401 -14.383420 4.978270 0.178935 0.000000 -0.000000 0.000000 -22.475342 -2.946613 14.379635 61.896527 -0.404175 0.403152 -24.722718 -2.337626 -12.376859 0.000000 0.000000 -0.000000 0.000000 0.000000 -0.000000 0.000000 0.000001 0.000001 -19.343856 -9.815235 -16.690144 62.862131 0.024640 -0.452410 -28.489289 -3.168542 9.950293 0.000000 -0.000000 -0.000000 0.000000 -0.000000 -0.000000 -0.000004 -0.000000 -0.000001 21.550307 -0.035427 0.797165 9.809016 -0.342356 0.683368 9.809132 -0.348990 0.680110 -0.910295 -1.276695 -1.784724 -14.923277 -2.869719 0.743295 -0.000000 -0.000000 -0.000000 -0.000000 -0.000000 -0.000000 -0.000000 -0.000000 -0.000000 1.072722 -17.144692 -11.780728 -13.146704 -7.430051 -58.239152 -122.528157 -99.986764 -113.562693 -12.482429 -19.603483 9.025971 20.331943 9.933476 -19.757576 3.939769 33.667867 6.078592 0.000000 -0.000002 0.000000 11.363781 7.904075 -58.236283 11.234400 12.102407 -91.100305 0.000000 0.000002 -0.000007 -3.298570 14.720967 -56.198629 18.760284 6.500893 -95.604125 0.000002 -0.000000 -0.000003 -8.494694 16.102507 -73.522082 10.315796 4.268948 -84.465049 0.000000 0.000000 -0.000004 -15.188840 25.479423 -80.166251 11.541109 -3.632297 -77.891928 0.000002 0.000000 -0.000004 0.000002 0.000001 0.000000 5.172828 3.648960 27.179329 -6.992006 24.483223 41.834270 -115.177330 85.617719 104.331017 -11.298134 18.193652 -16.132929 8.894693 -7.828291 1.446431 9.271440 -37.317705 4.987553 -0.000001 -0.000003 0.000000 8.189812 -23.348312 55.160464 10.811719 -12.134831 88.575123 -0.000001 0.000000 0.000002 -6.635101 -19.674225 56.832392 16.928248 -6.843154 86.580113 0.000002 0.000000 0.000001 -12.859338 -19.863823 65.314982 10.018278 -4.260370 82.469815 0.000001 0.000000 -0.000003 -20.415301 -25.165946 76.312406 11.319235 3.626810 76.523746 0.000001 -0.000002 -0.000000 0.000001 -0.000001 0.000001 -0.000002 -0.000001 0.000000 -0.000002 -0.000001 0.000000 -0.000002 -0.000001 0.000000 -0.000002 -0.000001 0.000000 -0.000002 -0.000001 0.000000 -0.000002 -0.000000 0.000000 -0.000002 -0.000001 0.000000 -0.000002 -0.000001 0.000000 -0.000002 -0.000000 0.000000 0.000000 -0.000000 0.000000 0.000000 -0.000000 0.000000 0.000000 -0.000000 0.000000 
-0.786902 71.277962 -1.734695 -14.338941 5.041991 0.142749 0.000000 -0.000000 0.000000 -21.987303 -3.017549 14.389496 61.252959 -0.408511 0.398335 -24.596351 -2.216386 -12.432207 -0.000000 0.000000 0.000000 -0.000000 0.000000 -0.000000 0.000001 0.000002 -0.000000 -18.842054 -9.998350 -16.501057 62.204165 0.036058 -0.443556 -28.379967 -3.259211 9.892122 0.000000 -0.000000 0.000000 0.000000 -0.000000 0.000000 -0.000001 -0.000000 -0.000001 21.356294 -0.037936 0.802074 9.452080 -0.346722 0.682924 9.452162 -0.352989 0.679801 -2.829263 -1.231448 -1.422296 -15.403212 -2.576766 0.475217 0.000001 -0.000000 -0.000000 0.000001 -0.000000 -0.000000 0.000001 -0.000000 -0.000000 1.134368 -16.534151 -11.770731 -12.622306 -7.635154 -58.549078 -121.413607 -104.190636 -112.915396 -12.348402 -19.157282 8.059310 20.164696 9.938973 -19.473648 3.937522 33.619632 6.020599 -0.000001 -0.000001 -0.000001 11.276535 7.927437 -58.047018 11.180962 12.103974 -90.783104 -0.000001 0.000002 -0.000003 -3.341539 14.723260 -56.033946 18.708020 6.538598 -95.323363 0.000001 0.000000 0.000000 -8.505275 16.083856 -73.349292 10.281825 4.271261 -84.257350 0.000001 -0.000000 -0.000000 -15.183545 25.418882 -79.979958 11.558119 -3.632825 -77.730572 0.000001 -0.000000 0.000001 -0.000002 0.000001 -0.000001 5.424321 3.134137 27.023509 -7.228872 23.621361 42.477360 -161.265957 88.301212 151.022723 -11.009412 17.078359 -15.668898 7.973033 -7.630412 -0.074778 8.805109 -36.683320 4.331418 -0.000001 0.000003 0.000000 5.674174 -22.181275 51.185885 9.635735 -12.118229 81.650486 0.000001 0.000001 -0.000003 -7.492013 -19.584784 53.361772 15.951770 -7.253504 81.503541 0.000000 0.000001 -0.000002 -13.034564 -19.230848 62.220564 9.380427 -4.198531 78.215583 0.000000 0.000000 -0.000003 -19.510651 -23.956827 72.908902 10.735294 3.660123 73.233828 -0.000001 -0.000001 0.000000 0.000000 -0.000001 -0.000000 0.000000 -0.000000 -0.000000 0.000000 -0.000000 -0.000000 0.000000 -0.000000 -0.000000 0.000000 -0.000000 -0.000000 0.000000 -0.000000 0.000000 0.000000 -0.000000 0.000000 0.000000 -0.000000 -0.000000 0.000000 -0.000000 0.000000 0.000000 -0.000000 0.000000 0.000001 0.000000 -0.000000 0.000001 0.000000 -0.000000 0.000000 -0.000000 0.000000 
-0.819699 71.446182 -1.578716 -14.251643 5.104025 0.120181 0.000001 -0.000000 -0.000000 -21.645839 -3.092494 14.361743 60.731324 -0.409991 0.394403 -24.487956 -2.097438 -12.465873 -0.000000 -0.000000 -0.000000 -0.000000 -0.000000 0.000000 0.000001 0.000000 -0.000000 -18.482156 -10.118427 -16.350834 61.665215 0.049398 -0.436249 -28.281561 -3.368447 9.853849 0.000000 0.000002 0.000000 0.000000 0.000002 0.000000 -0.000001 0.000001 -0.000001 21.194051 -0.027844 0.809110 9.150696 -0.328790 0.695543 9.150801 -0.334197 0.692639 -4.553171 -1.242954 -1.044970 -15.734693 -2.319414 0.160345 0.000000 -0.000000 0.000000 0.000000 -0.000000 0.000000 0.000000 -0.000000 0.000000 1.208276 -15.969950 -11.791467 -12.120330 -7.981500 -58.628015 -119.963066 -107.700807 -111.970201 -11.657370 -18.541484 8.271332 18.687118 9.950810 -16.984237 3.910184 33.181363 5.507459 0.000001 -0.000005 0.000001 10.479887 8.120692 -56.335878 10.710724 12.125936 -87.918946 -0.000003 0.000000 -0.000002 -3.735912 14.737163 -54.545242 18.223725 6.864078 -92.781638 0.000003 -0.000001 -0.000002 -8.604590 15.914655 -71.785664 9.972152 4.284894 -82.380032 0.000001 0.000002 -0.000009 -15.134886 24.874449 -78.293270 11.706796 -3.630886 -76.273139 0.000000 -0.000000 -0.000002 0.000003 -0.000001 0.000002 5.693605 2.547559 26.674570 -7.993043 22.575367 43.437008 -68.757445 93.588604 59.256010 -10.409688 16.041328 -15.460528 6.784086 -7.366356 -2.053912 8.132798 -35.699217 3.526439 -0.000001 -0.000002 0.000000 2.442715 -20.182237 45.744335 8.027485 -11.799111 72.091404 0.000000 -0.000001 0.000003 -8.791882 -19.343068 48.470758 14.518026 -7.622990 74.331446 0.000000 0.000000 0.000003 -13.293394 -18.340993 57.860370 8.473457 -4.003526 72.235548 -0.000001 0.000001 0.000002 -18.315287 -22.402855 67.983400 9.903743 3.786032 68.617248 -0.000001 0.000000 0.000004 0.000001 -0.000001 0.000000 0.000001 0.000000 -0.000000 0.000001 0.000000 -0.000000 0.000001 0.000000 -0.000000 0.000001 0.000000 -0.000000 0.000001 0.000000 -0.000000 0.000002 0.000000 -0.000000 0.000001 0.000000 -0.000000 0.000001 0.000000 -0.000000 0.000002 0.000000 -0.000000 0.000001 -0.000000 0.000000 0.000001 -0.000000 0.000000 0.000001 -0.000000 -0.000000 
-0.841518 71.582886 -1.448034 -14.183462 5.162017 0.115306 0.000001 0.000001 0.000000 -21.366379 -3.134860 14.331105 60.303037 -0.411623 0.391140 -24.400373 -2.020380 -12.485595 0.000000 -0.000000 -0.000000 0.000000 -0.000000 0.000000 0.000002 0.000001 0.000001 -18.179336 -10.203224 -16.239494 61.224204 0.056815 -0.430349 -28.203263 -3.469474 9.831794 -0.000000 -0.000000 -0.000000 -0.000000 -0.000000 -0.000000 -0.000000 -0.000000 0.000001 21.054133 -0.009753 0.825384 8.890556 -0.300767 0.715144 8.890739 -0.304912 0.712008 -5.990303 -1.288386 -0.695226 -15.930054 -2.102816 -0.171415 0.000000 0.000000 0.000000 0.000000 0.000000 0.000000 0.000000 0.000000 0.000000 1.301097 -15.393281 -11.815992 -11.760178 -8.346233 -58.587662 -118.939753 -109.747282 -111.468633 -10.585923 -17.533613 8.488891 15.524200 9.763930 -11.827137 3.808507 32.164245 4.401696 -0.000001 -0.000000 -0.000002 8.598355 8.382834 -52.438200 9.649224 12.108106 -81.394278 -0.000001 -0.000000 -0.000002 -4.694817 14.687193 -51.147131 17.047305 7.446615 -86.942509 0.000004 -0.000001 -0.000000 -8.869365 15.518176 -68.198626 9.255070 4.235742 -78.088760 0.000003 0.000001 -0.000005 -15.007753 23.656726 -74.422158 12.005102 -3.571678 -72.949446 -0.000000 0.000000 0.000001 0.000002 -0.000001 0.000001 5.954720 2.003994 26.171473 -9.134735 21.296231 44.689730 -80.877124 96.845321 72.327619 -9.631199 14.663643 -15.263456 5.546564 -7.053487 -4.132668 7.269747 -34.399971 2.759830 -0.000002 0.000001 0.000000 -0.876096 -17.363581 39.559831 6.271429 -11.156335 61.074213 -0.000001 -0.000001 0.000003 -10.421990 -18.865939 42.693330 12.786979 -7.736671 65.821269 0.000001 0.000001 -0.000002 -13.611107 -17.275053 52.703475 7.410110 -3.604316 65.178617 -0.000001 -0.000001 0.000005 -16.993121 -20.889688 61.896609 8.912354 4.056770 63.181244 -0.000001 -0.000001 0.000002 0.000001 -0.000000 0.000000 -0.000001 0.000000 -0.000000 -0.000001 0.000000 -0.000000 -0.000001 0.000000 -0.000000 -0.000001 0.000000 -0.000000 -0.000001 0.000000 -0.000000 -0.000001 -0.000000 0.000000 -0.000001 0.000000 -0.000000 -0.000001 0.000000 -0.000000 -0.000001 -0.000000 0.000000 0.000001 0.000001 -0.000000 0.000001 0.000001 -0.000000 0.000001 0.000001 0.000000 
